<svg width="138" height="27" viewBox="0 0 138 27" fill="none" xmlns="http://www.w3.org/2000/svg">
<g id="Logo/Facebook">
<path id="Vector" d="M9.35204 26.3839H4.20047V13.4044H0.691132V9.17859H4.20034V6.1716C4.20034 2.60831 5.75246 0.0527344 10.8901 0.0527344C11.9767 0.0527344 13.6826 0.274093 13.6826 0.274093V4.19802H11.8908C10.0651 4.19802 9.35231 4.7593 9.35231 6.31102V9.17859H13.6143L13.2347 13.4044H9.35218L9.35204 26.3839ZM21.1724 8.84089C21.0974 8.84089 21.0201 8.84365 20.9437 8.84558C16.1669 8.84558 13.9814 12.4771 13.9814 17.6322C13.9814 24.1262 16.8163 26.7253 20.981 26.7253C23.3638 26.7253 24.9294 25.7117 25.8809 23.82V26.3857H30.7808V9.18038H25.8809V11.8263C25.104 10.124 23.4947 8.86106 21.1724 8.84089ZM22.4183 12.9064C24.4246 12.9064 25.6288 14.3208 25.6288 16.7266L25.6335 19.1838C25.6335 20.8053 24.6388 22.7023 22.4183 22.7023C19.0045 22.7023 19.0957 18.9768 19.0957 17.736C19.0957 13.5621 20.9146 12.9064 22.4183 12.9064ZM32.7596 17.7839C32.7596 15.6932 32.6606 8.85208 41.4793 8.85208C45.0193 8.85208 46.4974 9.98968 46.4974 9.98968L45.3094 13.7139C45.3094 13.7139 43.8331 12.8924 41.9095 12.8924C39.4458 12.8924 37.8737 14.3359 37.8737 16.8757L37.8764 18.6969C37.8764 21.1373 39.3933 22.7664 41.9146 22.7664C43.667 22.7664 45.2822 21.9371 45.2822 21.9371L46.4672 25.5836C46.4672 25.5836 45.1156 26.7284 41.504 26.7284C33.1073 26.7284 32.7597 20.5906 32.7597 17.7839H32.7596ZM75.2272 8.84558C80.0041 8.84558 82.2241 12.4771 82.2241 17.6322C82.2241 24.1262 79.389 26.7253 75.2243 26.7253C72.8415 26.7253 71.08 25.7118 70.1285 23.82V26.3857L65.2903 26.3838V0.57587L70.4272 0.123066V11.5932C71.1686 9.58648 73.6052 8.84558 75.2273 8.84558H75.2272ZM73.787 12.9064C71.7807 12.9064 70.4272 14.3208 70.4272 16.7266L70.4224 19.1838C70.4194 20.8053 71.3598 22.7023 73.787 22.7023C77.2008 22.7023 77.1096 18.9768 77.1096 17.736C77.1096 13.5621 75.2909 12.9064 73.787 12.9064ZM55.4104 8.85982C49.9924 8.85982 47.1321 11.8454 47.1321 17.1511V18.1368C47.1321 25.0231 51.1489 26.7961 55.9377 26.7961C60.5925 26.7961 62.6994 25.4802 62.6994 25.4802L61.7382 21.9761C61.7382 21.9761 59.2598 23.0418 56.5536 23.0418C53.7482 23.0418 52.5417 22.3192 52.2325 19.5943H63.1101V16.7831C63.1101 11.0278 59.8999 8.85968 55.4103 8.85968L55.4104 8.85982ZM55.541 12.3687C57.4165 12.3687 58.6317 13.531 58.565 16.2267H52.2419C52.3516 13.3895 53.6621 12.3688 55.541 12.3688V12.3687ZM92.4669 8.83619C86.903 8.83619 83.9739 12.0051 83.9739 17.684C83.9739 25.4758 89.0231 26.73 92.4762 26.73C97.5314 26.73 100.895 23.9793 100.895 17.7548C100.895 11.2761 97.1131 8.83619 92.4669 8.83619ZM92.3969 12.9205C94.8435 12.9205 95.8129 14.7711 95.8129 16.8776V18.6887C95.8129 21.2406 94.4564 22.7166 92.3876 22.7166C90.4529 22.7166 89.0931 21.3359 89.0931 18.6887V16.8776C89.0931 14.0544 90.7111 12.9205 92.3969 12.9205ZM111.128 8.83619C105.564 8.83619 102.635 12.0051 102.635 17.684C102.635 25.4758 107.684 26.73 111.138 26.73C116.193 26.73 119.556 23.9793 119.556 17.7548C119.556 11.2761 115.774 8.83619 111.128 8.83619ZM111.058 12.9205C113.505 12.9205 114.474 14.7711 114.474 16.8776V18.6887C114.474 21.2406 113.118 22.7166 111.049 22.7166C109.114 22.7166 107.754 21.3359 107.754 18.6887V16.8776C107.754 14.0544 109.372 12.9205 111.058 12.9205ZM121.497 26.3839V0.57587L126.649 0.123066V17.4212L131.76 9.17859H137.201L131.869 17.7155L137.406 26.3839H131.95L126.649 17.967V26.3839H121.497Z" fill="#717A86"/>
</g>
</svg>
