<svg width="142" height="35" viewBox="0 0 142 35" fill="none" xmlns="http://www.w3.org/2000/svg">
<path id="Logo/Pinterest" d="M15.4541 0.384004C13.6275 0.590893 10.8876 1.45028 9.32874 2.30966C5.14021 4.58544 2.30587 8.13438 0.888697 12.861C0.605263 13.784 0.27459 16.2985 0.290336 17.4762C0.290336 18.5107 0.605263 21.0411 0.794219 21.6458C0.888697 21.9323 1.0934 22.6166 1.26661 23.1418C1.55004 24.033 2.91998 26.834 3.15617 27.0249C3.20341 27.0727 3.45535 27.391 3.69155 27.757C4.27416 28.6323 5.80156 30.1919 6.95104 31.0831C7.83283 31.7675 10.3208 33.2157 10.6357 33.2316C10.7144 33.2316 10.7302 32.6268 10.6829 31.8311C10.5727 30.0646 10.9034 27.6615 11.612 25.2107C11.7379 24.7969 11.8324 24.2558 11.8324 24.0171C11.8324 23.7784 11.8954 23.5237 11.9741 23.4442C12.0529 23.3487 12.1946 22.8871 12.2733 22.4097C12.3678 21.9323 12.5252 21.2002 12.6355 20.7864C12.7929 20.1658 12.7772 19.927 12.5567 19.2586C12.2418 18.2401 12.2261 16.585 12.541 15.7893C13.2811 13.8954 14.0999 13.1793 15.4856 13.1793C17.1547 13.1793 17.9577 14.4524 17.6428 16.585C17.5011 17.5558 17.1074 19.0836 16.8555 19.561C16.7925 19.7042 16.6823 20.1021 16.635 20.4363C16.5721 20.7864 16.4461 21.2798 16.3673 21.5503C16.1469 22.171 16.5721 23.3805 17.1389 23.842C17.6743 24.2717 18.7923 24.399 19.8158 24.1603C20.5401 24.0012 20.8393 23.8102 21.5951 23.0781C22.4927 22.1869 23.1698 21.1525 23.1698 20.6591C23.1698 20.5159 23.2485 20.3249 23.343 20.2294C23.7839 19.7838 24.0201 16.3144 23.6894 14.8503C23.3272 13.2429 22.2092 11.6674 20.7606 10.7444C19.3119 9.8054 16.3201 9.53486 14.4778 10.1714C13.1866 10.617 12.0371 11.365 11.297 12.2403C10.6357 13.0201 9.94284 14.2933 9.94284 14.7389C9.94284 14.8981 9.86411 15.1049 9.76963 15.2004C9.67516 15.2959 9.56493 15.9007 9.51769 16.5532C9.43896 17.5239 9.50195 17.9696 9.78538 18.9244C9.97434 19.5769 10.3208 20.3408 10.5255 20.6273C10.9506 21.2002 10.9506 21.423 10.5569 22.9508C10.4467 23.3646 10.2578 23.7465 10.1475 23.7943C9.15553 24.1762 7.13999 21.7731 6.4629 19.386C6.21096 18.4788 6.19521 15.2482 6.44716 14.2933C6.55738 13.8954 6.74634 13.3543 6.87231 13.0679C6.99828 12.7973 7.1085 12.5268 7.1085 12.4631C7.1085 12.3995 7.42343 11.8584 7.81709 11.2695C9.86411 8.15029 13.1866 6.49518 17.3909 6.49518C18.3514 6.49518 19.3434 6.55884 19.6111 6.63841C21.7841 7.32274 22.3667 7.54554 23.217 8.05481C24.8704 9.05742 26.0671 10.4261 27.2638 12.7178C27.3425 12.861 27.4528 13.2429 27.5 13.5612C27.563 13.8795 27.6732 14.1819 27.752 14.2296C27.8307 14.2774 27.8937 15.3118 27.8937 16.5372C27.8937 18.7494 27.7362 19.6406 27.0749 21.4548C26.3348 23.4442 24.4295 25.6404 22.6974 26.4997C21.7054 26.9772 19.8473 27.5024 19.1072 27.5024C18.1152 27.5024 16.1626 26.6748 15.6273 26.0064C15.3753 25.704 15.1391 25.8154 15.1391 26.2451C15.1391 26.4043 15.0761 26.6748 14.9817 26.834C14.9029 26.9772 14.7612 27.4228 14.6825 27.8207C14.2258 29.9214 13.5802 31.6242 12.5882 33.2157C12.289 33.709 12.541 33.9955 13.3598 34.1069C13.7692 34.1705 14.3203 34.2819 14.5723 34.3615C15.2021 34.5684 18.6191 34.5366 19.7686 34.3297C20.8078 34.1387 22.4927 33.6613 23.2485 33.343C28.0039 31.3696 31.6098 27.3591 33.1687 22.2506C34.0033 19.5292 34.0505 16.3622 33.2947 13.1793C33.0427 12.1448 32.964 11.9061 32.2869 10.3147C31.3106 7.99115 29.1061 5.26976 26.8702 3.59874C24.9491 2.16643 23.0595 1.33888 20.115 0.622722C19.2962 0.431748 16.3831 0.272603 15.4541 0.384004ZM57.4496 6.12915C56.8354 6.22464 55.8592 7.24317 55.6072 8.03889C55.3395 8.91419 55.6072 9.85315 56.363 10.5852C58.0322 12.2244 60.9295 10.6807 60.5673 8.32535C60.3469 6.82939 58.9927 5.87452 57.4496 6.12915ZM40.286 7.06811C40.1443 7.22725 40.1443 26.4202 40.3018 26.643C40.3805 26.7703 41.0576 26.818 42.3803 26.8021L44.3486 26.7862L44.4273 23.5556C44.4903 20.9297 44.5533 20.2931 44.7423 20.1817C44.8682 20.1021 45.939 20.0225 47.1199 20.0225C49.7024 20.0225 50.7888 19.8316 51.9698 19.195C53.513 18.3515 54.4105 17.142 54.8986 15.2163C55.1978 14.0068 55.1978 13.1315 54.8829 11.8902C54.5995 10.7762 54.4735 10.5056 53.7964 9.59852C52.9618 8.46858 52.1115 7.84792 50.7259 7.35457C49.9543 7.09994 49.3087 7.05219 45.1359 7.00445C42.5378 6.97262 40.349 7.00445 40.286 7.06811ZM48.9308 11.0308C49.9858 11.365 50.5054 11.8425 50.7416 12.7018C51.0408 13.8318 50.8203 14.8821 50.159 15.5187C49.4347 16.203 48.7891 16.3622 46.6791 16.3622C45.2934 16.3622 44.8682 16.3144 44.6793 16.1076C44.4746 15.9166 44.4273 15.4551 44.4273 13.6408C44.4273 10.7762 44.4116 10.7921 46.6003 10.7921C47.5451 10.7921 48.4584 10.8876 48.9308 11.0308ZM76.5499 10.0919C76.5499 11.19 76.4711 12.2244 76.3924 12.3995C76.2822 12.6064 76.0617 12.7018 75.6838 12.7018C75.4004 12.7018 75.1327 12.7655 75.1012 12.861C75.0854 12.9406 75.0854 13.4976 75.1327 14.0864C75.2114 15.1368 75.2272 15.1527 75.6996 15.2641C75.9672 15.3118 76.2664 15.4073 76.3609 15.471C76.5026 15.5505 76.5499 16.8078 76.5499 19.9907C76.5499 24.2717 76.5656 24.4309 76.912 25.0674C77.6364 26.4202 78.7701 26.8976 81.0691 26.834L82.6122 26.7862L82.6594 25.2425L82.7067 23.6829H82.313C81.7147 23.6829 80.8329 23.2054 80.7384 22.8235C80.6911 22.6325 80.6439 20.9456 80.6439 19.0517C80.6439 16.4418 80.6911 15.5665 80.8486 15.4391C80.9588 15.3437 81.3997 15.2482 81.8249 15.2163L82.6122 15.1686V12.7814L81.7462 12.7337C81.2738 12.7018 80.8329 12.5904 80.7699 12.495C80.7069 12.3836 80.6439 11.3491 80.6439 10.1874V8.08664H76.5499V10.0919ZM135.079 8.18212C135.016 8.24578 134.969 9.2484 134.969 10.4102C134.969 12.67 134.953 12.7018 134.087 12.7018C133.693 12.7018 133.693 12.7178 133.741 13.9273C133.788 15.1368 133.804 15.1686 134.213 15.2163C134.433 15.2482 134.701 15.3596 134.78 15.4551C134.874 15.5665 134.969 17.4921 135.016 19.943C135.063 22.2983 135.142 24.4468 135.205 24.7014C135.394 25.4016 136.37 26.2929 137.299 26.5952C138.339 26.9454 140.984 26.9772 141.252 26.643C141.378 26.4997 141.425 25.9268 141.393 25.0993L141.346 23.7624L140.795 23.667C140.197 23.5715 139.519 23.2532 139.346 22.9826C139.283 22.8871 139.22 21.1525 139.22 19.1313C139.22 14.9776 139.126 15.2482 140.496 15.2482C141.393 15.2482 141.472 15.089 141.393 13.6408L141.346 12.7814L140.323 12.7018L139.299 12.6223L139.22 10.3942L139.142 8.16621L137.158 8.11846C136.071 8.10255 135.142 8.13438 135.079 8.18212ZM68.7554 12.3199C67.9838 12.5268 67.0863 13.052 66.4879 13.6726C65.7636 14.4365 65.5747 14.3888 65.4959 13.418L65.4487 12.7814H61.5121V26.7862L63.4961 26.818C65.4487 26.8658 65.4959 26.8499 65.5904 26.4997C65.6376 26.3088 65.6849 24.2876 65.6849 21.9959C65.6849 17.4603 65.7006 17.333 66.6297 16.4418C67.0391 16.0439 67.2595 15.9643 68.1413 15.9166L69.1648 15.8529L69.7789 16.5054C70.5033 17.2693 70.4245 16.5373 70.4875 23.1259C70.5033 24.8765 70.519 26.4202 70.5348 26.5793C70.5662 26.8021 70.8182 26.834 72.5818 26.8021L74.5816 26.7862V15.6142L74.1249 14.7071C73.3376 13.1315 72.1251 12.3836 70.2671 12.2881C69.6057 12.2722 68.9286 12.2722 68.7554 12.3199ZM88.4383 12.3199C86.7377 12.7814 85.9189 13.2429 84.8639 14.2933C83.4468 15.7415 82.8012 17.4285 82.8012 19.7042C82.8169 23.6988 85.2891 26.6589 88.9422 27.009C92.06 27.3114 94.4692 26.3883 96.0123 24.3035C96.2328 24.0012 96.7052 23.0304 96.7052 22.8553C96.7052 22.7917 95.7919 22.728 94.6897 22.728H92.6741L92.2017 23.2214C91.6506 23.7943 90.879 24.1603 90.1704 24.1603C89.4619 24.1603 88.3754 23.651 87.8715 23.1099C87.4936 22.6803 86.9424 21.4389 86.9424 21.0092C86.9424 20.866 88.0919 20.8183 91.7923 20.8183C94.4534 20.8183 96.7052 20.7546 96.8154 20.6909C97.0516 20.5318 96.8311 18.0014 96.4847 17.0783C95.7761 15.1527 94.4377 13.5294 93.0835 12.9565C92.6899 12.7973 92.2332 12.5904 92.0758 12.5109C91.7451 12.3358 88.9422 12.1926 88.4383 12.3199ZM91.5089 15.8052C92.123 16.2349 92.6584 17.2534 92.5796 17.8263C92.5324 18.1924 92.5009 18.1924 89.8398 18.2401C86.7692 18.2878 86.7535 18.2719 87.2416 17.1261C87.5881 16.3304 88.2809 15.6142 88.9265 15.4073C89.6666 15.1686 90.8633 15.3596 91.5089 15.8052ZM111.743 12.3199C109.916 12.8132 108.641 13.6249 107.649 14.8821C107.255 15.3914 106.94 15.8688 106.94 15.9643C106.94 16.0439 106.83 16.3304 106.688 16.6009C106.547 16.8555 106.342 17.6513 106.232 18.3674C105.681 21.7731 107.192 24.956 110.027 26.3883L111.113 26.9454H113.396C115.758 26.9454 115.963 26.8976 117.412 26.1178C118.467 25.5449 120.199 23.3168 119.931 22.8712C119.868 22.7917 118.971 22.728 117.916 22.728H115.979L115.585 23.1895C114.01 24.9879 111.066 24.0648 110.436 21.5662C110.342 21.232 110.341 20.9456 110.42 20.8819C110.499 20.8342 112.751 20.8023 115.443 20.8183C119.285 20.8183 120.325 20.7864 120.34 20.6273C120.482 18.638 119.537 15.6938 118.356 14.4206C117.695 13.7045 116.546 12.9087 115.979 12.7655C115.727 12.7018 115.443 12.5904 115.333 12.5109C115.113 12.3358 112.231 12.1926 111.743 12.3199ZM114.199 15.4232C114.908 15.6779 115.727 16.5691 115.853 17.2534C116.042 18.2878 116.057 18.2878 113.129 18.2401C110.499 18.1924 110.483 18.1924 110.436 17.8263C110.373 17.3807 110.924 16.2826 111.397 15.8688C112.074 15.2959 113.255 15.1049 114.199 15.4232ZM125.442 12.3199C122.214 13.0997 121.049 14.2615 121.033 16.6805C121.033 19.2905 122.324 20.3886 126.151 21.0729C128.78 21.5344 129.536 21.9482 129.505 22.9508C129.489 23.667 129.001 24.1285 128.025 24.3354C126.796 24.6059 125.836 24.3035 125.064 23.4282L124.45 22.728H122.545C121.002 22.728 120.64 22.7757 120.64 22.9508C120.64 23.4123 121.269 24.6218 121.789 25.2266C122.277 25.7518 122.655 26.0064 124.135 26.7225C124.277 26.8021 125.049 26.9294 125.82 27.0249C127.253 27.2 129.741 27.0408 130.371 26.7225C130.513 26.6589 130.922 26.452 131.268 26.2929C132.166 25.8632 133.016 24.8924 133.331 23.9693C133.678 22.919 133.583 21.4548 133.095 20.4363C132.512 19.2427 130.969 18.3833 128.67 17.9696C125.71 17.4444 125.663 17.4285 125.19 16.9669C124.623 16.3781 124.623 16.1712 125.19 15.5346C125.647 15.0254 125.678 15.0095 126.938 15.0095C128.198 15.0095 128.229 15.0254 128.686 15.5346C128.938 15.8211 129.143 16.1553 129.143 16.2826C129.143 16.4736 129.473 16.5213 131.111 16.5213C133.284 16.5213 133.221 16.5691 132.843 15.4391C132.15 13.4339 130.371 12.4154 127.411 12.304C126.497 12.2722 125.615 12.2722 125.442 12.3199ZM104.5 12.6541C103.807 12.8928 102.846 13.6885 102.547 14.2615C102.248 14.8344 101.98 14.5957 101.901 13.6408L101.823 12.7814H97.8862L97.8389 19.4655C97.8232 23.1418 97.8389 26.3088 97.8862 26.5157C97.9649 26.8658 98.0121 26.8658 99.9017 26.834C100.988 26.818 101.87 26.7225 101.933 26.6271C101.996 26.5475 102.059 24.8605 102.059 22.8871C102.059 19.7679 102.09 19.2109 102.358 18.5107C102.909 17.0624 104.09 16.203 105.57 16.203C105.98 16.203 106.153 16.1235 106.2 15.9166C106.31 15.4551 106.326 13.3066 106.232 12.8292C106.137 12.4472 106.059 12.3836 105.633 12.3995C105.35 12.4154 104.846 12.5268 104.5 12.6541ZM56.0009 12.8928C55.9536 13.0042 55.9379 16.1394 55.9536 19.8634L56.0009 26.6271L57.8747 26.7066C59.0084 26.7544 59.8272 26.7225 59.9532 26.6271C60.1264 26.4997 60.1737 25.147 60.1737 19.7361C60.1894 16.0439 60.1422 12.9406 60.0949 12.861C59.9375 12.6223 56.0796 12.6541 56.0009 12.8928Z" fill="#717A86"/>
</svg>
