<svg width="109" height="37" viewBox="0 0 109 37" fill="none" xmlns="http://www.w3.org/2000/svg">
<path id="Logo/Twitch" d="M104.026 7.01757H99.2731V0.36377H88.837L84.0378 7.01757H75.5095L72.6579 9.86919V7.01757H66.0041V0.36377H45.0921V7.01757H15.6728L10.8726 0.36377H0.416626V23.1768L13.7242 36.4844H27.0318V32.6822L30.834 36.4844H56.4986V32.6822L60.3008 36.4844H72.6579V32.6822L76.46 36.4844H100.224L108.778 27.9295V11.7703L104.026 7.01757ZM16.5758 16.523H9.92205V18.4241H16.5758V26.0284H6.11988L2.31771 22.2262V2.26485H9.92205V8.91865H16.5758V16.523ZM45.0921 26.0284H22.2791L18.4769 22.2262V8.91865H26.0813V18.4241H27.9824V8.91865H35.5867V18.4241H37.4878V8.91865H45.0921V26.0284ZM54.5975 26.0284H46.9932V8.91865H54.5975V26.0284ZM54.5975 7.01757H46.9932V2.26485H54.5975V7.01757ZM70.7568 16.523H64.103V18.4241H70.7568V26.0284H60.3008L56.4986 22.2262V2.26485H64.103V8.91865H70.7568V16.523ZM87.8665 16.523H80.2622V18.4241H87.8665V26.0284H76.46L72.6579 22.2262V12.7208L76.46 8.91865H87.8665V16.523ZM106.877 26.0284H99.2731V16.523H97.372V26.0284H89.7676V2.26485H97.372V8.91865H103.075L106.877 12.7208V26.0284Z" fill="#717A86"/>
</svg>
