<svg width="127" height="29" viewBox="0 0 127 29" fill="none" xmlns="http://www.w3.org/2000/svg">
<g id="Logo/YouTube">
<path id="Vector" d="M21.4016 28.4437L13.1524 28.2912C10.4813 28.2381 7.80377 28.3442 5.18527 27.7937C1.20172 26.9712 0.919528 22.9385 0.624208 19.5558C0.217322 14.8001 0.374826 9.95823 1.14266 5.24235C1.5758 2.59588 3.28209 1.01729 5.92029 0.844834C14.8258 0.221355 23.7905 0.294315 32.6763 0.586156C33.6148 0.612687 34.5598 0.758608 35.4851 0.924427C40.0528 1.73362 40.1643 6.30359 40.4596 10.1506C40.755 14.0374 40.6303 17.9441 40.0659 21.8043C39.6131 25.0013 38.7468 27.681 35.0914 27.9396C30.5106 28.2779 26.0349 28.5498 21.441 28.4636C21.441 28.4437 21.4148 28.4437 21.4016 28.4437ZM16.5518 20.3518C20.0038 18.3487 23.3901 16.3787 26.8224 14.3889C23.3639 12.3858 19.9841 10.4159 16.5518 8.42607V20.3518Z" fill="#717A86"/>
<g id="Group">
<path id="Vector_2" d="M106.627 24.8092C106.47 25.4592 106.332 25.9699 106.194 26.5138H102.965V1.34229H106.732V10.6282C106.929 10.3762 107.028 10.2701 107.113 10.1573C107.756 9.26187 108.589 8.67818 109.666 8.45267C111.379 8.11439 112.842 8.87717 113.361 10.542C113.695 11.5767 113.912 12.6844 113.938 13.7656C113.991 16.5447 113.951 19.3172 113.853 22.0964C113.813 22.9454 113.557 23.8143 113.236 24.6102C112.179 27.2368 108.727 27.6348 107.014 25.3597C106.909 25.2204 106.811 25.0679 106.627 24.8092ZM106.811 17.8845V22.4877C106.811 23.2372 107.205 23.6949 107.946 23.8673C108.675 24.0398 109.265 23.7546 109.561 23.0714C109.685 22.7862 109.81 22.4877 109.817 22.1892C109.889 19.3769 109.955 16.5646 109.974 13.7457C109.974 13.2217 109.85 12.6778 109.692 12.167C109.397 11.2451 108.583 10.9731 107.782 11.5104C107.179 11.9216 106.811 12.5053 106.811 13.2814V17.8845ZM96.5732 8.81084H100.517V26.5271H97.4395C97.328 25.8572 97.2164 25.1674 97.0851 24.3582C96.8751 24.6699 96.7504 24.8689 96.6192 25.0679C95.5954 26.5603 94.1451 27.071 92.4322 26.799C90.9687 26.5603 90.0893 25.4194 89.8925 23.549C89.8334 22.9918 89.8071 22.428 89.8071 21.8709C89.794 17.7253 89.8071 13.5666 89.8071 9.42106V8.79757H93.7972V9.52055C93.7972 13.5268 93.7841 17.5264 93.8104 21.5326C93.8104 22.103 93.8694 22.6933 93.9679 23.2638C94.0794 23.8474 94.4994 24.0597 95.0638 24.0199C95.976 23.9469 96.6061 23.2637 96.6061 22.3484V9.59351C96.5732 9.33483 96.5732 9.09605 96.5732 8.81084ZM69.4169 8.79757H73.3808V9.54708C73.3808 13.5334 73.3677 17.5131 73.3939 21.4862C73.3939 22.0566 73.4464 22.6469 73.5645 23.2041C73.7155 23.8607 74.0961 24.073 74.7458 23.9867C75.6449 23.8607 76.1896 23.2306 76.1962 22.3086V9.62004V8.8241H80.1403V26.5271H77.0756C76.964 25.8704 76.8524 25.1939 76.7081 24.3383C76.5112 24.6367 76.3996 24.8092 76.288 24.9883C75.2643 26.5072 73.827 27.0644 72.0748 26.7924C70.6704 26.5802 69.8107 25.5322 69.5482 23.8143C69.476 23.277 69.4235 22.7464 69.4235 22.2091C69.4104 17.9044 69.4104 13.5798 69.4104 9.27514L69.4169 8.79757ZM67.3825 18.256C67.3694 18.8529 67.33 19.4499 67.2972 20.0468C67.1462 21.8377 67.0741 24.3781 65.6434 25.6847C64.7312 26.5072 63.5762 26.8057 62.3818 26.8455C61.8502 26.8587 61.312 26.8587 60.7805 26.7858C58.267 26.4011 57.0988 25.2801 56.6788 22.4877C56.1997 19.2642 56.1603 15.9875 56.7313 12.764C57.3219 9.42769 59.3564 8.24705 62.5196 8.46593C65.4728 8.67818 66.7919 10.6349 67.1397 13.4206C67.33 15.0192 67.4219 16.6376 67.3825 18.256ZM63.3662 17.6458C63.3662 16.5115 63.3924 15.3707 63.353 14.2365C63.3268 13.5798 63.2415 12.9166 63.1036 12.2665C62.9461 11.517 62.4736 11.1589 61.883 11.1721C61.3055 11.1854 60.8986 11.5436 60.6886 12.24C60.6164 12.4987 60.5376 12.764 60.5376 13.0227C60.5376 14.8003 60.5245 16.5845 60.5114 18.3621C60.4983 20.0203 60.2883 21.7581 60.8067 23.3433C60.9642 23.8275 61.3711 24.0929 61.9027 24.0929C62.4211 24.0929 62.7624 23.8342 62.9527 23.3699C63.1036 23.0117 63.2349 22.6204 63.2349 22.2357C63.2808 20.7101 63.3662 19.1779 63.3662 17.6458ZM50.8905 14.3094C51.2383 12.5915 51.5665 10.9134 51.9274 9.22871C52.3803 7.08631 52.8856 4.94391 53.3318 2.79487C53.4434 2.27088 53.6534 2.14486 54.1456 2.15812C55.2022 2.19792 56.2785 2.17139 57.4073 2.17139C57.0397 3.53775 56.6788 4.83778 56.3244 6.11791C55.2022 10.1374 54.08 14.1702 52.9709 18.2029C52.8856 18.5147 52.8462 18.8529 52.8462 19.1846C52.8331 21.3867 52.8462 23.5821 52.8462 25.7842V26.5006H48.9939C48.9808 26.3016 48.9545 26.1026 48.9545 25.9036C48.9545 24.6566 48.8561 23.403 48.9677 22.1693C49.2499 19.2045 48.318 16.4784 47.5633 13.7191C46.5657 10.0711 45.5551 6.40976 44.5576 2.76171C44.5051 2.58925 44.4854 2.40354 44.4329 2.19129H48.3639C49.1908 6.21741 50.0243 10.2435 50.8905 14.3094ZM126.263 18.9325H119.621C119.694 20.279 119.72 21.5591 119.858 22.826C119.956 23.7081 120.435 24.0862 121.19 24.0929C121.977 24.1061 122.437 23.7081 122.62 22.8326C122.68 22.5474 122.719 22.2622 122.745 21.9704C122.771 21.7117 122.785 21.4331 122.804 21.0617C123.926 21.1213 125.022 21.1877 126.105 21.2341C126.735 23.1245 125.6 25.5521 123.69 26.3016C122.187 26.8985 120.645 26.8985 119.109 26.4409C117.974 26.1026 117.128 25.373 116.747 24.252C116.392 23.2041 116.058 22.1096 115.986 21.0152C115.789 18.3157 115.717 15.5896 116.123 12.8834C116.196 12.4324 116.32 12.0012 116.458 11.5635C117.009 9.75933 118.21 8.65165 120.068 8.46593C121.078 8.36644 122.122 8.40624 123.119 8.57869C124.734 8.8639 125.593 10.0379 125.967 11.5767C126.138 12.2997 126.263 13.0426 126.289 13.7788C126.296 15.4702 126.263 17.1483 126.263 18.9325ZM122.489 16.6044C122.489 15.2712 122.502 14.0176 122.476 12.7574C122.476 12.4589 122.365 12.1471 122.253 11.8619C122.03 11.3048 121.564 11.1522 121.006 11.1522C120.448 11.1522 120.094 11.4374 119.956 11.9482C119.536 13.4803 119.674 15.0457 119.687 16.6177C120.691 16.6044 121.603 16.6044 122.489 16.6044Z" fill="#717A86"/>
<path id="Vector_3" d="M83.185 5.42163H79.2803V2.22461H90.9355V5.40173H87.057V26.5008H83.1916L83.185 5.42163Z" fill="#717A86"/>
</g>
</g>
</svg>
